<svg viewBox="0 0 1440 900" xmlns="http://www.w3.org/2000/svg">
  <defs>
    <style>
      text { font-family: 'HarmonyOS Sans SC', 'Microsoft YaHei', 'PingFang SC', sans-serif; }
      .mono { font-family: 'Consolas', 'Menlo', monospace; }
      .ink-1 { fill: #191919; }
      .ink-2 { fill: #73726c; }
      .ink-3 { fill: #a8a29a; }
      .ink-deep { fill: #3a3a37; }
      .accent { fill: #d97757; }
      .accent-text { fill: #c15f3c; }
      .ok { fill: #2fa35e; }
      .err { fill: #d6453e; }
      .card { fill: #ffffff; stroke: #e5e2d9; stroke-width: 1; }
      .card-soft { fill: #f0eee6; }
      .accent-soft { fill: #f7ede8; }
      .title { font-size: 14px; font-weight: 700; fill: #191919; letter-spacing: 0.3px; }
      .stat-num { font-size: 26px; font-weight: 700; fill: #191919; }
      .stat-label { font-size: 12px; fill: #73726c; }
      .nav { font-size: 13px; fill: #73726c; }
      .nav-active { font-size: 13px; font-weight: 700; fill: #c15f3c; }
      .node { fill: #ffffff; stroke: #d4a27f; stroke-width: 1.5; }
      .node-core { fill: #f7ede8; stroke: #d97757; stroke-width: 2; }
      .node-label { font-size: 11px; fill: #3a3a37; text-anchor: middle; }
      .e-dep { stroke: #d97757; stroke-width: 1.8; fill: none; }
      .e-aff { stroke: #d6453e; stroke-width: 2; stroke-dasharray: 9 5; fill: none; }
      .e-share { stroke: #2fa35e; stroke-width: 2; stroke-dasharray: 1.5 4.5; stroke-linecap: round; fill: none; }
      .e-rel { stroke: #a8a29a; stroke-width: 1.2; stroke-dasharray: 4 3; fill: none; }
      .lg { font-size: 11px; fill: #73726c; }
      .grp { font-size: 11px; font-weight: 700; fill: #a8a29a; letter-spacing: 1px; }
      .mod-name { font-size: 12.5px; font-weight: 600; fill: #191919; }
      .mod-sub { font-size: 11px; fill: #73726c; }
      .chip { fill: #f0eee6; }
      .chip-t { font-size: 10.5px; fill: #73726c; }
    </style>
    <marker id="arr-dep" markerWidth="8" markerHeight="8" refX="7" refY="4" orient="auto"><path d="M0,0 L8,4 L0,8 Z" fill="#d97757"/></marker>
    <marker id="arr-aff" markerWidth="10" markerHeight="10" refX="8" refY="5" orient="auto"><path d="M1,1 L8.4,5 L1,9 Z" fill="#ffffff" stroke="#d6453e" stroke-width="1.4"/></marker>
    <marker id="arr-share" markerWidth="10" markerHeight="9" refX="8.6" refY="4.5" orient="auto"><path d="M0.6,4.5 L4.8,1 L9,4.5 L4.8,8 Z" fill="#2fa35e"/></marker>
  </defs>

  <rect width="1440" height="900" fill="#faf9f5"/>

  <!-- ===== 顶栏 ===== -->
  <rect width="1440" height="52" fill="#f4f3ee"/>
  <line x1="0" y1="52" x2="1440" y2="52" stroke="#e5e2d9"/>
  <rect x="20" y="14" width="24" height="24" rx="6" fill="#d97757"/>
  <text x="32" y="31" font-size="13" font-weight="700" fill="#ffffff" text-anchor="middle">M</text>
  <text x="54" y="31" font-size="15" font-weight="700" class="ink-1">MemoryHub</text>
  <text x="152" y="31" font-size="12" class="ink-3">工作区:BoardGameEditor</text>
  <circle cx="1180" cy="26" r="4" class="ok"/>
  <text x="1192" y="30" font-size="12" class="ink-2">索引已同步 · 3 分钟前</text>
  <rect x="1345" y="14" width="75" height="24" rx="12" class="chip"/>
  <text x="1382" y="30" font-size="11" class="ink-2" text-anchor="middle">奶油 / 深色</text>

  <!-- ===== 左侧导航 ===== -->
  <rect x="0" y="52" width="200" height="848" fill="#f4f3ee"/>
  <line x1="200" y1="52" x2="200" y2="900" stroke="#e5e2d9"/>
  <rect x="8" y="76" width="184" height="36" rx="8" class="accent-soft"/>
  <rect x="8" y="76" width="3" height="36" rx="1.5" fill="#d97757"/>
  <text x="24" y="99" class="nav-active">架构总览</text>
  <text x="24" y="141" class="nav">模块详情</text>
  <text x="24" y="183" class="nav">影响面分析</text>
  <text x="24" y="225" class="nav">记忆检索</text>
  <text x="24" y="267" class="nav">库健康</text>
  <line x1="16" y1="290" x2="184" y2="290" stroke="#e5e2d9"/>
  <text x="24" y="316" font-size="11" class="ink-3">记忆层级</text>
  <text x="24" y="338" font-size="11.5" class="ink-deep">① 最高铁律</text>
  <text x="24" y="358" font-size="11.5" fill="#c15f3c" font-weight="600">② 图谱结构(本页)</text>
  <text x="24" y="378" font-size="11.5" class="ink-deep">③ 系统内部细节</text>

  <!-- ===== 统计卡行 ===== -->
  <rect x="224" y="72" width="200" height="76" rx="12" class="card"/>
  <text x="244" y="104" class="stat-num">18</text>
  <text x="244" y="128" class="stat-label">模块</text>
  <rect x="440" y="72" width="200" height="76" rx="12" class="card"/>
  <text x="460" y="104" class="stat-num">382</text>
  <text x="460" y="128" class="stat-label">记忆文件</text>
  <rect x="656" y="72" width="200" height="76" rx="12" class="card"/>
  <text x="676" y="104" class="stat-num">57</text>
  <text x="676" y="128" class="stat-label">关系边</text>
  <rect x="872" y="72" width="200" height="76" rx="12" class="card"/>
  <text x="892" y="104" class="stat-num">421</text>
  <text x="892" y="128" class="stat-label">向量块</text>
  <rect x="1088" y="72" width="328" height="76" rx="12" class="card"/>
  <text x="1108" y="100" font-size="12" class="ink-2">嫌疑清单待审计</text>
  <text x="1108" y="126" font-size="20" font-weight="700" fill="#c15f3c">4 项</text>
  <rect x="1244" y="94" width="152" height="30" rx="8" fill="none" stroke="#d4a27f"/>
  <text x="1320" y="114" font-size="12" fill="#c15f3c" text-anchor="middle">去库健康处理 →</text>

  <!-- ===== 全局架构图卡(分层泳道模式) ===== -->
  <rect x="224" y="164" width="848" height="712" rx="14" class="card"/>
  <text x="248" y="196" class="title">全局架构图</text>
  <rect x="342" y="180" width="150" height="24" rx="12" class="card-soft"/>
  <rect x="344" y="182" width="84" height="20" rx="10" fill="#d97757"/>
  <text x="386" y="196" font-size="11" fill="#ffffff" text-anchor="middle">分层泳道 ✓</text>
  <text x="460" y="196" font-size="11" class="ink-3" text-anchor="middle">力导</text>
  <!-- 图例 -->
  <line x1="522" y1="191" x2="548" y2="191" class="e-dep" marker-end="url(#arr-dep)"/><text x="558" y="195" class="lg">纵向依赖</text>
  <line x1="614" y1="191" x2="642" y2="191" class="e-aff" marker-end="url(#arr-aff)"/><text x="650" y="195" class="lg">影响</text>
  <line x1="684" y1="191" x2="712" y2="191" class="e-share" marker-end="url(#arr-share)"/><text x="720" y="195" class="lg">共享状态</text>
  <rect x="782" y="181" width="20" height="18" rx="4" class="accent-soft" stroke="#d4a27f"/>
  <text x="792" y="194" font-size="10" class="accent-text" text-anchor="middle">⊞</text>
  <text x="808" y="195" class="lg">扩展族</text>
  <rect x="874" y="179" width="182" height="24" rx="12" fill="#d97757"/>
  <text x="890" y="195" font-size="11" fill="#ffffff">◉ 焦点:StateSync 同步 · 会话  ✕</text>

  <!-- 泳道底 -->
  <rect x="240" y="212" width="816" height="128" rx="10" fill="#faf9f5"/>
  <rect x="240" y="346" width="816" height="128" rx="10" fill="#f4f3ee" opacity="0.55"/>
  <rect x="240" y="480" width="816" height="128" rx="10" fill="#faf9f5"/>
  <rect x="240" y="614" width="816" height="128" rx="10" fill="#f4f3ee" opacity="0.55"/>
  <text x="252" y="234" class="grp">UI / 编辑器层</text>
  <text x="252" y="368" class="grp">业务 / 运行时层</text>
  <text x="252" y="502" class="grp">引擎 / 同步层</text>
  <text x="252" y="636" class="grp">基础 / 原子层</text>

  <!-- 焦点模式:只画与选中模块(StateSync)相关的边,正交通道路由,余边隐藏 -->
  <!-- 入边 depends_on(自上而下汇入顶缘端口) -->
  <path d="M 536 304 L 536 370 Q 536 376 542 376 L 784 376 Q 790 376 790 382 L 790 528" class="e-dep" marker-end="url(#arr-dep)"/>
  <path d="M 338 450 L 338 496 Q 338 502 344 502 L 758 502 Q 764 502 764 508 L 764 528" class="e-dep" marker-end="url(#arr-dep)"/>
  <path d="M 711 450 L 711 506 Q 711 512 717 512 L 802 512 Q 808 512 808 518 L 808 528" class="e-dep" marker-end="url(#arr-dep)"/>
  <!-- 出边 affects(自顶缘左部向上回流,通道错开) -->
  <path d="M 756 532 L 756 468 Q 756 462 750 462 L 368 462 Q 362 462 362 456 L 362 454" class="e-aff" marker-end="url(#arr-aff)"/>
  <path d="M 772 532 L 772 478 Q 772 472 766 472 L 566 472 Q 560 472 560 466 L 560 454" class="e-aff" marker-end="url(#arr-aff)"/>
  <!-- 出边 depends_on(向下至基础层) -->
  <path d="M 826 584 L 826 614 Q 826 620 820 620 L 386 620 Q 380 620 380 626 L 380 652" class="e-dep" marker-end="url(#arr-dep)"/>

  <!-- 非相关节点(焦点模式下淡化) -->
  <g opacity="0.32">
    <rect x="264" y="252" width="168" height="52" rx="8" class="node"/>
    <text x="348" y="274" class="node-label" font-weight="600">UI 编辑器与 Drawer</text>
    <text x="348" y="292" class="node-label" fill="#73726c">15 features</text>
    <rect x="676" y="252" width="140" height="52" rx="8" class="node"/>
    <text x="746" y="274" class="node-label" font-weight="600">MainUI 面板</text>
    <text x="746" y="292" class="node-label" fill="#73726c">6 features</text>
    <rect x="822" y="398" width="120" height="52" rx="8" class="node"/>
    <text x="882" y="420" class="node-label" font-weight="600">回合系统</text>
    <text x="882" y="438" class="node-label" fill="#73726c">∥ 并行于本道</text>
    <rect x="286" y="532" width="140" height="52" rx="8" class="node"/>
    <text x="356" y="554" class="node-label" font-weight="600">蓝图引擎</text>
    <text x="356" y="572" class="node-label" fill="#73726c">节点注册表</text>
    <rect x="398" y="538" width="24" height="20" rx="5" fill="#d97757"/>
    <text x="410" y="552" font-size="10.5" fill="#ffffff" text-anchor="middle">⊞52</text>
    <rect x="486" y="532" width="150" height="52" rx="8" class="node"/>
    <text x="561" y="554" class="node-label" font-weight="600">Mod 行为引擎</text>
    <text x="561" y="572" class="node-label" fill="#73726c">反射注册</text>
    <rect x="608" y="538" width="24" height="20" rx="5" fill="#d97757"/>
    <text x="620" y="552" font-size="10.5" fill="#ffffff" text-anchor="middle">⊞13</text>
    <rect x="520" y="656" width="160" height="52" rx="8" class="node"/>
    <text x="600" y="678" class="node-label" font-weight="600">Atom*Ops 原子层</text>
    <text x="600" y="696" class="node-label" fill="#73726c">公共契约门面</text>
    <rect x="764" y="656" width="146" height="52" rx="8" class="node"/>
    <text x="837" y="678" class="node-label" font-weight="600">框架单例 / SO</text>
    <text x="837" y="696" class="node-label" fill="#73726c">FrameworkCenter</text>
  </g>

  <!-- 焦点相关节点(正常显示) -->
  <rect x="452" y="252" width="188" height="52" rx="8" class="node"/>
  <text x="536" y="274" class="node-label" font-weight="600">Display 绑定范式</text>
  <text x="536" y="292" class="node-label" fill="#73726c">10 features · 绑定驱动显示</text>
  <rect x="612" y="258" width="24" height="20" rx="5" fill="#d97757"/>
  <text x="624" y="272" font-size="10.5" fill="#ffffff" text-anchor="middle">⊞16</text>
  <rect x="264" y="398" width="148" height="52" rx="8" class="node"/>
  <text x="338" y="420" class="node-label" font-weight="600">手牌容器与出牌</text>
  <text x="338" y="438" class="node-label" fill="#73726c">11 features</text>
  <rect x="470" y="398" width="130" height="52" rx="8" class="node"/>
  <text x="535" y="420" class="node-label" font-weight="600">卡堆容器</text>
  <text x="535" y="438" class="node-label" fill="#73726c">9 features</text>
  <rect x="636" y="398" width="150" height="52" rx="8" class="node"/>
  <text x="711" y="420" class="node-label" font-weight="600">效果系统</text>
  <text x="711" y="438" class="node-label" fill="#73726c">响应窗 / 连锁</text>
  <rect x="758" y="404" width="24" height="20" rx="5" fill="#d97757"/>
  <text x="770" y="418" font-size="10.5" fill="#ffffff" text-anchor="middle">⊞24</text>
  <rect x="286" y="656" width="150" height="52" rx="8" class="node"/>
  <text x="361" y="678" class="node-label" font-weight="600">L0 数据模型</text>
  <text x="361" y="696" class="node-label" fill="#73726c">共享地基 · 动=硬停</text>

  <!-- 焦点选中节点:StateSync(光环 + 端口点) -->
  <rect x="736" y="526" width="180" height="64" rx="10" fill="none" stroke="#d97757" stroke-width="2" opacity="0.55"/>
  <rect x="742" y="532" width="168" height="52" rx="8" class="node-core"/>
  <text x="826" y="554" class="node-label" font-weight="700">StateSync 同步 · 会话</text>
  <text x="826" y="572" class="node-label" fill="#73726c">12 features · 权威态</text>
  <circle cx="764" cy="532" r="2.5" fill="#d97757"/>
  <circle cx="790" cy="532" r="2.5" fill="#d97757"/>
  <circle cx="808" cy="532" r="2.5" fill="#d97757"/>
  <circle cx="756" cy="532" r="2.5" fill="#d6453e"/>
  <circle cx="772" cy="532" r="2.5" fill="#d6453e"/>
  <circle cx="826" cy="584" r="2.5" fill="#d97757"/>

  <!-- 底部:形态读法 + 边阅读策略(防大规模连线混乱) -->
  <text x="248" y="766" font-size="11" class="ink-2">形态读法:<tspan class="accent-text">纵向(深度)</tspan>=跨道依赖链 · <tspan class="accent-text">并行</tspan>=同道并列且无边 · <tspan class="accent-text">横向</tspan>=⊞ 扩展族 · 深链示例:MainUI→Display 绑定→StateSync→L0</text>
  <rect x="248" y="782" width="808" height="80" rx="10" class="card-soft"/>
  <text x="264" y="806" font-size="11" font-weight="700" class="ink-deep">边阅读策略(大规模防乱):① 默认只显纵向依赖骨架 ② 点选模块进焦点模式 = 只显它的进出边,其余节点淡化(本图即焦点态)</text>
  <text x="264" y="826" font-size="11" class="ink-2">③ 边走泳道间正交通道、同通道平行错开,不斜穿节点 ④ 同一对模块多条边聚合为一条 + 计数,点击展开 ⑤ 悬停边显 reason / evidence</text>
  <text x="264" y="846" font-size="11" class="ink-3">规模承诺:50 模块 / 200+ 边时,焦点模式单次可见边 = 该模块度数(通常 &lt;10),始终可读</text>

  <!-- ===== 右侧模块列(按分层) ===== -->
  <rect x="1088" y="164" width="328" height="712" rx="14" class="card"/>
  <text x="1112" y="196" class="title">模块 · 按分层</text>
  <text x="1338" y="196" font-size="11" fill="#c15f3c">共 18 个</text>
  <text x="1112" y="228" class="grp">UI / 编辑器层</text>
  <rect x="1104" y="240" width="296" height="46" rx="8" class="card-soft"/>
  <text x="1118" y="259" class="mod-name">Display 绑定范式</text>
  <rect x="1244" y="246" width="34" height="17" rx="4" fill="#d97757"/>
  <text x="1261" y="258" font-size="9.5" fill="#ffffff" text-anchor="middle">⊞16</text>
  <text x="1118" y="277" class="mod-sub">10 features · 出边 3 / 入边 2 · 横向扩展族</text>
  <rect x="1104" y="292" width="296" height="46" rx="8" class="card-soft"/>
  <text x="1118" y="311" class="mod-name">UI 编辑器与 Drawer</text>
  <text x="1118" y="329" class="mod-sub">15 features · 出边 2 / 入边 1</text>
  <text x="1112" y="372" class="grp">业务 / 运行时层</text>
  <rect x="1104" y="384" width="296" height="46" rx="8" class="card-soft"/>
  <text x="1118" y="403" class="mod-name">手牌容器与出牌</text>
  <text x="1118" y="421" class="mod-sub">11 features · 出边 4 / 入边 3</text>
  <rect x="1104" y="436" width="296" height="46" rx="8" class="card-soft"/>
  <text x="1118" y="455" class="mod-name">卡堆容器</text>
  <text x="1118" y="473" class="mod-sub">9 features · 出边 3 / 入边 2</text>
  <rect x="1104" y="488" width="296" height="46" rx="8" class="card-soft"/>
  <text x="1118" y="507" class="mod-name">效果系统(响应窗/连锁)</text>
  <rect x="1290" y="494" width="34" height="17" rx="4" fill="#d97757"/>
  <text x="1307" y="506" font-size="9.5" fill="#ffffff" text-anchor="middle">⊞24</text>
  <text x="1118" y="525" class="mod-sub">14 features · 出边 3 / 入边 5 · 卡牌自包含族</text>
  <text x="1112" y="568" class="grp">引擎 / 同步层</text>
  <rect x="1104" y="580" width="296" height="46" rx="8" class="card-soft"/>
  <text x="1118" y="599" class="mod-name">StateSync 状态同步 · 会话</text>
  <text x="1118" y="617" class="mod-sub">12 features · 出边 5 / 入边 3</text>
  <rect x="1104" y="632" width="296" height="46" rx="8" class="card-soft"/>
  <text x="1118" y="651" class="mod-name">蓝图引擎</text>
  <rect x="1244" y="638" width="34" height="17" rx="4" fill="#d97757"/>
  <text x="1261" y="650" font-size="9.5" fill="#ffffff" text-anchor="middle">⊞52</text>
  <text x="1118" y="669" class="mod-sub">16 features · 节点注册表扩展族</text>
  <rect x="1104" y="684" width="296" height="46" rx="8" class="card-soft"/>
  <text x="1118" y="703" class="mod-name">Mod 行为引擎</text>
  <rect x="1244" y="690" width="34" height="17" rx="4" fill="#d97757"/>
  <text x="1261" y="702" font-size="9.5" fill="#ffffff" text-anchor="middle">⊞13</text>
  <text x="1118" y="721" class="mod-sub">13 features · 反射注册扩展族</text>
  <text x="1112" y="764" class="grp">基础 / 原子层</text>
  <rect x="1104" y="776" width="296" height="46" rx="8" class="card-soft"/>
  <text x="1118" y="795" class="mod-name">L0 数据模型 / Atom*Ops</text>
  <text x="1118" y="813" class="mod-sub">共享地基 · 动=Foundation-mod 硬停</text>
  <text x="1252" y="850" font-size="11" class="ink-3" text-anchor="middle">…滚动查看其余 8 个模块</text>
</svg>
